<svg width="20" height="20" viewBox="0 0 20 20" fill="none" xmlns="http://www.w3.org/2000/svg">
<g id="mail">
<path id="Subtract" fill-rule="evenodd" clip-rule="evenodd" d="M18.3334 7.40838V15C18.3334 15.4421 18.1662 15.866 17.8685 16.1786C17.5708 16.4911 17.1671 16.6667 16.7461 16.6667L3.25405 16.6667C2.83307 16.6667 2.42933 16.4911 2.13166 16.1786C1.83398 15.866 1.66675 15.4421 1.66675 15V7.40838L7.59781 10.6576C9.09439 11.4774 10.9058 11.4774 12.4023 10.6576L18.3334 7.40838ZM18.3334 5.12793V5.00004C18.3334 4.55801 18.1662 4.13409 17.8685 3.82153C17.5708 3.50897 17.1671 3.33337 16.7461 3.33337H3.25405C2.83307 3.33337 2.42934 3.50897 2.13166 3.82153C1.83398 4.13409 1.66675 4.55801 1.66675 5.00004V5.12793L8.55872 8.90353C9.45667 9.39545 10.5435 9.39545 11.4414 8.90353L18.3334 5.12793Z" fill="#191F28"/>
</g>
</svg>
