<svg width="16" height="17" viewBox="0 0 16 17" fill="none" xmlns="http://www.w3.org/2000/svg">
<g id="icon-arrow-down-mono">
<path id="Vector" fill-rule="evenodd" clip-rule="evenodd" d="M13.4142 7.24971C13.4143 7.36788 13.391 7.4849 13.3457 7.59405C13.3004 7.70319 13.234 7.80231 13.1502 7.88571L8.65023 12.3857C8.56665 12.4693 8.46742 12.5356 8.35821 12.5809C8.249 12.6261 8.13194 12.6494 8.01373 12.6494C7.89551 12.6494 7.77846 12.6261 7.66924 12.5809C7.56003 12.5356 7.4608 12.4693 7.37723 12.3857L2.87723 7.88571C2.79074 7.80279 2.72169 7.70343 2.67411 7.59347C2.62653 7.48351 2.60138 7.36516 2.60015 7.24535C2.59891 7.12555 2.62161 7.0067 2.66691 6.89578C2.71221 6.78486 2.7792 6.68411 2.86395 6.59942C2.94871 6.51473 3.04951 6.44782 3.16047 6.40261C3.27142 6.3574 3.39029 6.33479 3.51009 6.33612C3.6299 6.33745 3.74823 6.36269 3.85815 6.41036C3.96808 6.45802 4.06737 6.52716 4.15023 6.61371L8.01423 10.4767L11.8772 6.61371C12.003 6.48766 12.1634 6.40176 12.3381 6.36691C12.5127 6.33205 12.6938 6.34979 12.8583 6.41788C13.0229 6.48598 13.1636 6.60136 13.2625 6.74944C13.3615 6.89751 13.4143 7.07161 13.4142 7.24971Z" fill="white"/>
</g>
</svg>
