<svg width="24" height="24" viewBox="0 0 24 24" fill="none" xmlns="http://www.w3.org/2000/svg">
<g id="Group 2">
<path id="Union" fill-rule="evenodd" clip-rule="evenodd" d="M4.23131 7.37472C4.23131 7.6795 4.15612 7.96672 4.02329 8.21884L5.2467 9.49228C5.61081 9.29813 6.02654 9.18808 6.46799 9.18808C7.90353 9.18808 9.06727 10.3518 9.06727 11.7874C9.06727 13.2229 7.90353 14.3867 6.46799 14.3867C6.02437 14.3867 5.60672 14.2755 5.24134 14.0796L4.17614 15.1448C4.58513 15.5779 4.83588 16.162 4.83588 16.8047C4.83588 18.1401 3.75333 19.2226 2.41794 19.2226C1.08255 19.2226 0 18.1401 0 16.8047C0 15.4693 1.08255 14.3867 2.41794 14.3867C2.70989 14.3867 2.98976 14.4385 3.24887 14.5333L4.40862 13.3735C4.07007 12.9347 3.8687 12.3845 3.8687 11.7874C3.8687 11.1875 4.0719 10.6351 4.41321 10.1953L3.25124 8.98577C3.00171 9.11511 2.71831 9.18818 2.41785 9.18818C1.41631 9.18818 0.604399 8.37627 0.604399 7.37472C0.604399 6.37318 1.41631 5.56127 2.41785 5.56127C3.4194 5.56127 4.23131 6.37318 4.23131 7.37472Z" fill="currentColor" />
<path id="Union_2" fill-rule="evenodd" clip-rule="evenodd" d="M19.4645 16.2003C19.4645 15.8955 19.5397 15.6083 19.6725 15.3562L18.4491 14.0827C18.085 14.2769 17.6693 14.3869 17.2278 14.3869C15.7923 14.3869 14.6286 13.2232 14.6286 11.7877C14.6286 10.3521 15.7923 9.18838 17.2278 9.18838C17.6714 9.18838 18.089 9.29948 18.4543 9.49537L19.5196 8.43013C19.1106 7.99707 18.8599 7.41299 18.8599 6.77036C18.8599 5.43496 19.9425 4.35242 21.2779 4.35242C22.6133 4.35242 23.6958 5.43496 23.6958 6.77036C23.6958 8.10575 22.6133 9.18829 21.2779 9.18829C20.9859 9.18829 20.706 9.13653 20.4468 9.04168L19.2871 10.2014C19.6257 10.6403 19.8271 11.1904 19.8271 11.7877C19.8271 12.3875 19.6239 12.9399 19.2826 13.3798L20.4446 14.5893C20.6941 14.4599 20.9775 14.3869 21.278 14.3869C22.2795 14.3869 23.0914 15.1988 23.0914 16.2003C23.0914 17.2018 22.2795 18.0138 21.278 18.0138C20.2764 18.0138 19.4645 17.2018 19.4645 16.2003Z" fill="currentColor" />
<path id="Union_3" fill-rule="evenodd" clip-rule="evenodd" d="M15.9837 4.60178C15.6791 4.59219 15.3944 4.50801 15.1466 4.3673L13.8352 5.55011C14.0179 5.92015 14.1148 6.33916 14.1009 6.7804C14.0558 8.21523 12.856 9.3418 11.4212 9.29666C9.98634 9.25152 8.85977 8.05177 8.90491 6.61693C8.91886 6.17352 9.04308 5.75954 9.25043 5.40049L8.21923 4.30231C7.77353 4.69745 7.18183 4.92968 6.53949 4.90948C5.20476 4.86749 4.15679 3.75143 4.19878 2.4167C4.24077 1.08197 5.35682 0.0339973 6.69155 0.0759879C8.02628 0.117978 9.07426 1.23403 9.03227 2.56876C9.02308 2.8606 8.96255 3.13873 8.85962 3.39476L9.98233 4.5904C10.4316 4.26585 10.9878 4.08189 11.5846 4.10066C12.1842 4.11952 12.7299 4.33998 13.1588 4.69494L14.4043 3.57151C14.2829 3.31804 14.2188 3.0325 14.2282 2.7322C14.2597 1.73115 15.0967 0.945167 16.0978 0.97666C17.0988 1.00815 17.8848 1.84519 17.8533 2.84624C17.8218 3.84729 16.9848 4.63327 15.9837 4.60178Z" fill="currentColor" />
<path id="Union_4" fill-rule="evenodd" clip-rule="evenodd" d="M7.26524 19.3982C7.56991 19.4078 7.85465 19.492 8.10249 19.6327L9.41378 18.45C9.23113 18.0799 9.1342 17.6609 9.14808 17.2196C9.19322 15.7848 10.393 14.6582 11.8278 14.7033C13.2626 14.7485 14.3892 15.9482 14.3441 17.3831C14.3301 17.8265 14.2059 18.2405 13.9986 18.5995L15.0298 19.6977C15.4755 19.3026 16.0672 19.0703 16.7095 19.0905C18.0442 19.1325 19.0922 20.2486 19.0502 21.5833C19.0082 22.918 17.8922 23.966 16.5574 23.924C15.2227 23.882 14.1747 22.766 14.2167 21.4312C14.2259 21.1394 14.2864 20.8613 14.3894 20.6053L13.2667 19.4096C12.8174 19.7342 12.2612 19.9181 11.6643 19.8993C11.0648 19.8805 10.5191 19.66 10.0902 19.3051L8.84471 20.4286C8.96612 20.682 9.03023 20.9675 9.02078 21.2678C8.98929 22.2689 8.15225 23.0548 7.1512 23.0233C6.15015 22.9919 5.36417 22.1548 5.39566 21.1538C5.42716 20.1527 6.2642 19.3667 7.26524 19.3982Z" fill="currentColor" />
</g>
</svg>
